<?xml version="1.0" encoding="utf-8"?>
<!-- Generator: Adobe Illustrator 22.0.0, SVG Export Plug-In . SVG Version: 6.00 Build 0)  -->
<svg version="1.1" id="Layer_1" xmlns="http://www.w3.org/2000/svg" xmlns:xlink="http://www.w3.org/1999/xlink" x="0px" y="0px"
	 viewBox="0 0 750 500" style="enable-background:new 0 0 750 500;" xml:space="preserve">
<style type="text/css">
	.st0{clip-path:url(#SVGID_2_);fill:url(#SVGID_3_);}
	.st1{clip-path:url(#SVGID_2_);}
	.st2{fill:url(#SVGID_4_);}
	.st3{fill:url(#SVGID_5_);}
	.st4{fill:url(#SVGID_6_);}
	.st5{fill:url(#SVGID_7_);}
	.st6{fill:url(#SVGID_8_);}
	.st7{fill:url(#SVGID_9_);}
	.st8{fill:url(#SVGID_10_);}
	.st9{fill:url(#SVGID_11_);}
	.st10{fill:url(#SVGID_12_);}
	.st11{fill:url(#SVGID_13_);}
</style>
<g>
	<defs>
		<rect id="SVGID_1_" width="750" height="500"/>
	</defs>
	<clipPath id="SVGID_2_">
		<use xlink:href="#SVGID_1_"  style="overflow:visible;"/>
	</clipPath>
	<linearGradient id="SVGID_3_" gradientUnits="userSpaceOnUse" x1="143.3599" y1="614.9796" x2="494.9624" y2="60.9834">
		<stop  offset="0" style="stop-color:#4E0380"/>
		<stop  offset="1" style="stop-color:#553BD2"/>
	</linearGradient>
	<rect class="st0" width="750" height="500"/>
	<g class="st1">
		<linearGradient id="SVGID_4_" gradientUnits="userSpaceOnUse" x1="400.1377" y1="366.9122" x2="145.1418" y2="330.0259">
			<stop  offset="0" style="stop-color:#553AD0;stop-opacity:0"/>
			<stop  offset="1" style="stop-color:#553AD0"/>
		</linearGradient>
		<path class="st2" d="M131.8,264.5c42.5,159.3,165.4,248.7,321.7,32.9l-117.7,51.4L131.8,264.5z"/>
		<g>
			<linearGradient id="SVGID_5_" gradientUnits="userSpaceOnUse" x1="361.6754" y1="328.3861" x2="259.0354" y2="240.18">
				<stop  offset="0" style="stop-color:#5A0389"/>
				<stop  offset="1" style="stop-color:#553BD2"/>
			</linearGradient>
			<path class="st3" d="M246.4,276.3c-11.2,13.8-21.7,26-31.6,36.3c65.9,25.5,125.9,42.8,157.4,35.5c31.6-7.4,52.4-31.4,74.4-55.6
				C361.4,213.1,321.2,183.7,246.4,276.3z"/>
			<linearGradient id="SVGID_6_" gradientUnits="userSpaceOnUse" x1="197.9738" y1="212.2767" x2="178.7289" y2="358.2185">
				<stop  offset="0" style="stop-color:#5A0389"/>
				<stop  offset="1" style="stop-color:#553BD2"/>
			</linearGradient>
			<path class="st4" d="M245.9,310.1c-38-14.7-78.4-32.7-115-49.5"/>
			<linearGradient id="SVGID_7_" gradientUnits="userSpaceOnUse" x1="776.9794" y1="186.4759" x2="736.8856" y2="265.0594">
				<stop  offset="0" style="stop-color:#5A0389"/>
				<stop  offset="1" style="stop-color:#553BD2"/>
			</linearGradient>
			<path class="st5" d="M714.5,193.9c-10.1,12.6-29.3,49.3-54.9,85c26.2,7.5,53.7,9.1,86.4-6.4h57.3
				C777.5,219.6,747.1,153.3,714.5,193.9z"/>
			<linearGradient id="SVGID_8_" gradientUnits="userSpaceOnUse" x1="449.5929" y1="385.085" x2="698.1741" y2="197.4464">
				<stop  offset="0" style="stop-color:#5A0389"/>
				<stop  offset="1" style="stop-color:#553BD2"/>
			</linearGradient>
			<path class="st6" d="M553.2,232.7c-51.4,0.7-79.9,30.4-106.5,59.8c15.7,14.7,33,31,52.3,48.6c79.9,72.8,151.9,5.3,202.5-65.2
				C654,262.3,610.2,231.9,553.2,232.7z"/>
		</g>
		<linearGradient id="SVGID_9_" gradientUnits="userSpaceOnUse" x1="397.6924" y1="118.8134" x2="385.3269" y2="371.7436">
			<stop  offset="0" style="stop-color:#F44CE1"/>
			<stop  offset="0.9877" style="stop-color:#565DE9"/>
		</linearGradient>
		<path class="st7" d="M4.2,241.4c-26.1,4.4-47,19.4-73.5,10.2c-22.1-7.7-40.6-26-49-47.8c-12.9-33.3-5.5-71.7,11.3-103.3
			c7.2-13.6,19.7-28,34.9-25.4c9.7,1.7,16.8,9.9,21.7,18.4c11.2,19.2,20.7,35.5,45.6,36.3c15,0.5,29.5-4.6,43.6-9.7
			s28.4-10.5,43.4-10.7c59.9-0.6,82.9,65.9,106.2,109c21.7,40,55.4,87.9,102.6,90.9c41.4,2.6,86.5-32.6,113.1-61.1
			c30.1-32.3,61.2-67.3,95.5-95.8C582.6,83,625.1,182,694.7,210.6c40.8,16.8,70.6,1.5,94.8-34.2c19.9-29.4,33.6-64.6,62-85.9
			c19.6-14.6,53.1-17.7,64,4.2c9.2,18.5-4.5,39.6-17.5,55.6c-24.3,30-48.9,60.2-78.8,84.5c-30,24.3-66.1,42.7-104.6,45.1
			c-75.2,4.7-150.5-50.7-221.8-26.1c-34.7,12-60.2,40.8-87.3,65.5c-27.1,24.8-61.2,47.5-97.6,42.7c-35.7-4.8-62.1-34.3-90.1-56.9
			C157.6,256.7,80.5,228.7,4.2,241.4z"/>
		<g>
			<linearGradient id="SVGID_10_" gradientUnits="userSpaceOnUse" x1="-95.0229" y1="164.6646" x2="129.4153" y2="164.6646">
				<stop  offset="0" style="stop-color:#F44CE1"/>
				<stop  offset="0.9877" style="stop-color:#565DE9"/>
			</linearGradient>
			<path class="st8" d="M-50.5,93.5c-4.9-8.5-12-16.7-21.7-18.4c-8.6-1.5-16.4,2.5-22.8,8.8l24.9,76.2c0,0,35.7,24.5,123.7,64.7
				c12.7,5.8,27.4,12.7,43.3,20.1c11,2.6,21.9,5.8,32.6,9.8C103.6,146,70.1,129.4,0.5,129.7c-1.8,0.1-3.6,0.1-5.4,0.1
				C-29.8,129-39.3,112.6-50.5,93.5z"/>
		</g>
		<linearGradient id="SVGID_11_" gradientUnits="userSpaceOnUse" x1="363.5246" y1="374.5176" x2="381.9543" y2="144.9819">
			<stop  offset="0" style="stop-color:#FF4B9A"/>
			<stop  offset="0.999" style="stop-color:#FFEC7E"/>
		</linearGradient>
		<path class="st9" d="M852,202.3c-4,12.3-13.2,22-22.8,30.7c-27.8,25.1-59.5,49.3-96.4,58.7c-49.3,12.5-93.2-13.9-138.1-29.4
			c-26.3-9.1-55.1-13.4-81.7-5.3c-58.1,17.7-122.1,126.6-185.6,127.2c-52.4,0.4-83.7-35.9-118-62.5c-25.1-19.5-50.6-41.7-77.6-57.1
			c-35.9-20.5-74.3-29-117.7-3.2c-0.5,0.3-0.9,0.5-1.4,0.8c-23.1,14.1-52.2,36.2-79,17.5c-14.6-10.2-19.8-29.2-22.7-46.7
			c-0.4-2.4-0.8-4.8-1.1-7.2c-0.4-2.4-0.7-4.8-1-7.2c-5.3-41.3-4-83.5,4-124.4c1.6-8.4,5.6-18.6,14.1-19.1c9-0.6,14,9.9,17.1,18.3
			c15,40.4,41.8,72,74.1,97.6c33.1,26.2,72,46.2,110.3,62.8c0.2,0.1,0.5,0.2,0.7,0.3c28.6,12.4,55.7,26.5,84.2,38.7
			c57.1,24.5,116.7,32.6,171.8-1.8c50.7-31.7,85.6-90.8,152.3-87.3c62.5,3.2,96.4,77.1,157.5,74.5c20.5-0.9,39.4-12.4,53.4-27.4
			c17.8-19,27.6-43.4,43.3-63.9c2.7-3.5,5.6-7,8.8-10.2c3.9-3.8,8.2-7.1,13.1-9.5c8.9-4.3,20.2-5,28.5,0.5
			C853.1,174.7,856,190.1,852,202.3z"/>
		<linearGradient id="SVGID_12_" gradientUnits="userSpaceOnUse" x1="602.4915" y1="291.6147" x2="661.8301" y2="203.4085">
			<stop  offset="0" style="stop-color:#FF17D0"/>
			<stop  offset="0.6014" style="stop-color:#FF88AC"/>
			<stop  offset="1" style="stop-color:#FFD394"/>
		</linearGradient>
		<path class="st10" d="M732.8,291.7c11.8-3,23-7.5,33.7-13C586,144.6,567.6,176.9,425.3,324.1l0,0c30.1-28.6,59.6-58.5,87.7-67.1
			c26.6-8.1,55.4-3.8,81.7,5.3C639.6,277.8,683.5,304.3,732.8,291.7z"/>
		<linearGradient id="SVGID_13_" gradientUnits="userSpaceOnUse" x1="-43.049" y1="368.2748" x2="56.684" y2="154.8926">
			<stop  offset="0" style="stop-color:#FF17D0"/>
			<stop  offset="1" style="stop-color:#FFD394"/>
		</linearGradient>
		<path class="st11" d="M131.8,264.5c-35.9-20.5-74.3-29-117.7-3.2c-0.5,0.3-0.9,0.5-1.4,0.8c-23.1,14.1-52.2,36.2-79,17.5
			c-14.6-10.2-19.8-29.2-22.7-46.7c-0.4-2.4-0.8-4.8-1.1-7.2c-0.3-2.4-0.7-4.8-1-7.2c-0.6-4.8-1.1-9.6-1.6-14.4
			c28.6-0.2,70.6-11.4,110.9-13.2c3.6-0.2,7.2-0.2,10.7-0.2c42.8,0,82.1,12.7,99.6,63.1C129.7,257.2,130.8,260.8,131.8,264.5z"/>
	</g>
</g>
</svg>
