
<svg xmlns="http://www.w3.org/2000/svg" xmlns:xlink="http://www.w3.org/1999/xlink">
	<defs>
		<symbol id="icon-heart-o" viewBox="0 0 32 32">
			<title>icon-heart-o</title>
			<path d="M22.88 1.952c-2.72 0-5.184 1.28-6.88 3.456-1.696-2.176-4.16-3.456-6.88-3.456-4.48 0-9.024 3.648-9.024 10.592 0 7.232 7.776 12.704 15.072 17.248 0.256 0.16 0.544 0.256 0.832 0.256s0.576-0.096 0.832-0.256c7.296-4.544 15.072-10.016 15.072-17.248 0-6.944-4.544-10.592-9.024-10.592zM16 26.56c-4.864-3.072-12.736-8.288-12.736-14.016 0-5.088 3.040-7.424 5.824-7.424 2.368 0 4.384 1.504 5.408 4.032 0.256 0.608 0.832 0.992 1.472 0.992s1.248-0.384 1.472-0.992c1.024-2.528 3.040-4.032 5.408-4.032 2.816 0 5.824 2.304 5.824 7.424 0.064 5.728-7.808 10.976-12.672 14.016z"></path>
			<path d="M16 30.144c-0.32 0-0.64-0.096-0.896-0.256-7.296-4.576-15.104-10.048-15.104-17.344 0-7.008 4.576-10.688 9.12-10.688 2.656 0 5.152 1.216 6.88 3.392 1.728-2.144 4.224-3.392 6.88-3.392 4.544 0 9.12 3.68 9.12 10.688 0 7.296-7.808 12.768-15.104 17.344-0.256 0.16-0.576 0.256-0.896 0.256zM9.12 2.048c-4.448 0-8.928 3.616-8.928 10.496 0 7.168 7.744 12.64 15.008 17.152 0.48 0.288 1.12 0.288 1.568 0 7.264-4.544 15.008-9.984 15.008-17.152 0-6.88-4.48-10.496-8.928-10.496-2.656 0-5.088 1.216-6.816 3.392l-0.032 0.128-0.064-0.096c-1.696-2.176-4.192-3.424-6.816-3.424zM16 26.688l-0.064-0.032c-3.808-2.4-12.768-8.032-12.768-14.112 0-5.152 3.072-7.52 5.952-7.52 2.432 0 4.48 1.536 5.504 4.096 0.224 0.576 0.768 0.928 1.376 0.928s1.152-0.384 1.376-0.928c1.024-2.56 3.072-4.096 5.504-4.096 2.848 0 5.952 2.336 5.952 7.52 0 6.080-8.96 11.712-12.768 14.112l-0.064 0.032zM9.12 5.248c-2.752 0-5.728 2.304-5.728 7.328 0 5.952 8.8 11.488 12.608 13.92 3.808-2.4 12.608-7.968 12.608-13.92 0-5.024-2.976-7.328-5.728-7.328-2.336 0-4.32 1.472-5.312 3.968-0.256 0.64-0.864 1.056-1.568 1.056s-1.312-0.416-1.568-1.056c-0.992-2.496-2.976-3.968-5.312-3.968z"></path>
			<path d="M6.816 20.704c0.384 0.288 0.512 0.704 0.48 1.12 0.224 0.256 0.384 0.608 0.384 0.96 0 0.032 0 0.032 0 0.064 0.16 0.128 0.32 0.256 0.48 0.384 0.128 0.064 0.256 0.16 0.384 0.256 0.096 0.064 0.192 0.16 0.256 0.224 0.8 0.576 1.632 1.12 2.496 1.664 0.416 0.128 0.8 0.256 1.056 0.32 1.984 0.576 4.064 0.8 6.112 0.928 2.688-1.92 5.312-3.904 8-5.792 0.896-1.088 1.92-2.080 2.912-3.104v-7.552c-0.096-0.128-0.192-0.288-0.32-0.416-0.768-1.024-1.184-2.176-1.6-3.296-0.768-0.416-1.536-0.8-2.336-1.12-0.128-0.064-0.256-0.096-0.384-0.16h-21.568v12.992c1.312 0.672 2.496 1.6 3.648 2.528z"></path>
		</symbol>
		<symbol id="icon-heart" viewBox="0 0 32 32">
			<title>icon-heart</title>
			<path d="M22.88 1.952c-2.72 0-5.184 1.28-6.88 3.456-1.696-2.176-4.16-3.456-6.88-3.456-4.48 0-9.024 3.648-9.024 10.592 0 7.232 7.776 12.704 15.072 17.248 0.256 0.16 0.544 0.256 0.832 0.256s0.576-0.096 0.832-0.256c7.296-4.544 15.072-10.016 15.072-17.248 0-6.944-4.544-10.592-9.024-10.592zM16 26.56c-4.864-3.072-12.736-8.288-12.736-14.016 0-5.088 3.040-7.424 5.824-7.424 2.368 0 4.384 1.504 5.408 4.032 0.256 0.608 0.832 0.992 1.472 0.992s1.248-0.384 1.472-0.992c1.024-2.528 3.040-4.032 5.408-4.032 2.816 0 5.824 2.304 5.824 7.424 0.064 5.728-7.808 10.976-12.672 14.016z"></path>
			<path d="M16 30.144c-0.32 0-0.64-0.096-0.896-0.256-7.296-4.576-15.104-10.048-15.104-17.344 0-7.008 4.576-10.688 9.12-10.688 2.656 0 5.152 1.216 6.88 3.392 1.728-2.144 4.224-3.392 6.88-3.392 4.544 0 9.12 3.68 9.12 10.688 0 7.296-7.808 12.768-15.104 17.344-0.256 0.16-0.576 0.256-0.896 0.256zM9.12 2.048c-4.448 0-8.928 3.616-8.928 10.496 0 7.168 7.744 12.64 15.008 17.152 0.48 0.288 1.12 0.288 1.568 0 7.264-4.544 15.008-9.984 15.008-17.152 0-6.88-4.48-10.496-8.928-10.496-2.656 0-5.088 1.216-6.816 3.392l-0.032 0.128-0.064-0.096c-1.696-2.176-4.192-3.424-6.816-3.424zM16 26.688l-0.064-0.032c-3.808-2.4-12.768-8.032-12.768-14.112 0-5.152 3.072-7.52 5.952-7.52 2.432 0 4.48 1.536 5.504 4.096 0.224 0.576 0.768 0.928 1.376 0.928s1.152-0.384 1.376-0.928c1.024-2.56 3.072-4.096 5.504-4.096 2.848 0 5.952 2.336 5.952 7.52 0 6.080-8.96 11.712-12.768 14.112l-0.064 0.032zM9.12 5.248c-2.752 0-5.728 2.304-5.728 7.328 0 5.952 8.8 11.488 12.608 13.92 3.808-2.4 12.608-7.968 12.608-13.92 0-5.024-2.976-7.328-5.728-7.328-2.336 0-4.32 1.472-5.312 3.968-0.256 0.64-0.864 1.056-1.568 1.056s-1.312-0.416-1.568-1.056c-0.992-2.496-2.976-3.968-5.312-3.968z"></path>
		</symbol>
		<symbol id="icon-infinity" viewBox="0 0 32 32">
			<title>icon-infinity</title>
			<path d="M29.312 20.832c-1.28 1.28-3.008 1.984-4.832 1.984s-3.52-0.704-4.832-1.984c-0.032-0.032-0.224-0.224-0.256-0.256v0 1.28c0 0.448-0.352 0.8-0.8 0.8s-0.8-0.352-0.8-0.8v-3.168c0-0.448 0.352-0.8 0.8-0.8h3.168c0.448 0 0.8 0.352 0.8 0.8s-0.352 0.8-0.8 0.8h-1.28c0.032 0.032 0.224 0.224 0.256 0.256 0.992 0.992 2.304 1.536 3.68 1.536 1.408 0 2.72-0.544 3.68-1.536 0.992-0.992 1.536-2.304 1.536-3.68s-0.544-2.72-1.536-3.68c-0.992-0.992-2.304-1.536-3.68-1.536-1.408 0-2.72 0.544-3.68 1.536l-8.416 8.448c-1.312 1.312-3.072 1.984-4.832 1.984s-3.488-0.672-4.832-1.984c-2.656-2.656-2.656-6.976 0-9.632s6.976-2.656 9.632 0c0.032 0.032 0.16 0.16 0.192 0.192l0.064 0.064v-1.28c0-0.448 0.352-0.8 0.8-0.8s0.8 0.352 0.8 0.8v3.168c0 0.448-0.352 0.8-0.8 0.8h-3.168c-0.448 0-0.8-0.352-0.8-0.8s0.352-0.8 0.8-0.8h1.28l-0.096-0.064c-0.032-0.032-0.16-0.16-0.192-0.192-0.992-0.992-2.304-1.536-3.68-1.536s-2.72 0.544-3.68 1.536c-2.048 2.048-2.048 5.344 0 7.392 0.992 0.992 2.304 1.536 3.68 1.536s2.72-0.544 3.68-1.536l8.512-8.512c1.28-1.28 3.008-1.984 4.832-1.984s3.52 0.704 4.832 1.984c2.624 2.656 2.624 7.008-0.032 9.664z"></path>
			<path d="M24.512 23.488c-1.6 0-3.136-0.512-4.416-1.44-0.128 0.704-0.736 1.248-1.44 1.248-0.8 0-1.472-0.672-1.472-1.472v-3.168c0-0.8 0.672-1.472 1.472-1.472h3.168c0.8 0 1.472 0.672 1.472 1.472 0 0.608-0.384 1.152-0.928 1.376 0.64 0.352 1.376 0.544 2.144 0.544 1.216 0 2.368-0.48 3.2-1.344 0.864-0.864 1.344-1.984 1.344-3.2s-0.48-2.368-1.344-3.2c-0.864-0.864-1.984-1.344-3.2-1.344s-2.368 0.48-3.2 1.344l-8.512 8.48c-1.408 1.408-3.296 2.176-5.312 2.176s-3.872-0.768-5.312-2.176c-2.912-2.912-2.912-7.68 0-10.592 1.408-1.408 3.296-2.176 5.312-2.176 0 0 0 0 0 0 1.6 0 3.136 0.512 4.416 1.44 0.128-0.704 0.736-1.248 1.472-1.248 0.8 0 1.472 0.672 1.472 1.472v3.168c0 0.8-0.672 1.472-1.472 1.472h-3.168c-0.8 0-1.472-0.672-1.472-1.472 0-0.608 0.384-1.152 0.928-1.376-0.64-0.352-1.376-0.544-2.144-0.544-1.216 0-2.368 0.48-3.2 1.344-1.76 1.76-1.76 4.64 0 6.432 0.864 0.864 2.016 1.344 3.2 1.344 1.216 0 2.368-0.48 3.2-1.344l8.48-8.544c1.408-1.408 3.296-2.208 5.312-2.208s3.872 0.768 5.312 2.208c1.408 1.408 2.176 3.296 2.176 5.312s-0.768 3.872-2.208 5.312v0c0 0 0 0 0 0-1.408 1.408-3.296 2.176-5.28 2.176zM18.752 18.912l1.44 1.44c1.152 1.152 2.688 1.792 4.32 1.792s3.168-0.64 4.32-1.792v0c1.152-1.152 1.792-2.688 1.792-4.32s-0.64-3.168-1.792-4.32c-1.152-1.152-2.688-1.792-4.352-1.792-1.632 0-3.168 0.64-4.32 1.792l-8.48 8.448c-1.12 1.12-2.592 1.728-4.16 1.728s-3.072-0.608-4.16-1.728c-2.304-2.304-2.304-6.048 0-8.352 1.12-1.12 2.592-1.728 4.16-1.728s3.072 0.608 4.16 1.728l1.44 1.408h-2.912c-0.064 0-0.128 0.064-0.128 0.128s0.064 0.128 0.128 0.128h3.168c0.064 0 0.128-0.064 0.128-0.128v-3.168c0-0.064-0.064-0.128-0.128-0.128s-0.128 0.064-0.128 0.128v2.912l-1.408-1.408c-1.152-1.152-2.688-1.792-4.352-1.792-1.632 0-3.168 0.64-4.32 1.792-2.4 2.4-2.4 6.272 0 8.672 1.152 1.152 2.688 1.792 4.32 1.792s3.168-0.64 4.32-1.792l8.512-8.512c1.12-1.12 2.592-1.728 4.16-1.728s3.072 0.608 4.16 1.728c1.12 1.12 1.728 2.592 1.728 4.16s-0.608 3.072-1.728 4.16c-1.12 1.12-2.592 1.728-4.16 1.728s-3.072-0.608-4.16-1.728l-1.408-1.408h2.912c0.064 0 0.128-0.064 0.128-0.128s-0.064-0.128-0.128-0.128h-3.168c-0.064 0-0.128 0.064-0.128 0.128v3.168c0 0.064 0.064 0.128 0.128 0.128s0.128-0.064 0.128-0.128v-2.88z"></path>
		</symbol>
		<symbol id="icon-pause" viewBox="0 0 32 32">
			<title>icon-pause</title>
			<path d="M16 0.32c-8.64 0-15.68 7.040-15.68 15.68s7.040 15.68 15.68 15.68 15.68-7.040 15.68-15.68-7.040-15.68-15.68-15.68zM16 29.216c-7.296 0-13.216-5.92-13.216-13.216s5.92-13.216 13.216-13.216 13.216 5.92 13.216 13.216-5.92 13.216-13.216 13.216z"></path>
			<path d="M16 32c-8.832 0-16-7.168-16-16s7.168-16 16-16 16 7.168 16 16-7.168 16-16 16zM16 0.672c-8.448 0-15.328 6.88-15.328 15.328s6.88 15.328 15.328 15.328c8.448 0 15.328-6.88 15.328-15.328s-6.88-15.328-15.328-15.328zM16 29.568c-7.488 0-13.568-6.080-13.568-13.568s6.080-13.568 13.568-13.568c7.488 0 13.568 6.080 13.568 13.568s-6.080 13.568-13.568 13.568zM16 3.104c-7.104 0-12.896 5.792-12.896 12.896s5.792 12.896 12.896 12.896c7.104 0 12.896-5.792 12.896-12.896s-5.792-12.896-12.896-12.896z"></path>
			<path d="M12.16 22.336v0c-0.896 0-1.6-0.704-1.6-1.6v-9.472c0-0.896 0.704-1.6 1.6-1.6v0c0.896 0 1.6 0.704 1.6 1.6v9.504c0 0.864-0.704 1.568-1.6 1.568z"></path>
			<path d="M19.84 22.336v0c-0.896 0-1.6-0.704-1.6-1.6v-9.472c0-0.896 0.704-1.6 1.6-1.6v0c0.896 0 1.6 0.704 1.6 1.6v9.504c0 0.864-0.704 1.568-1.6 1.568z"></path>
		</symbol>
		<symbol id="icon-play" viewBox="0 0 32 32">
			<title>icon-play</title>
			<path d="M21.216 15.168l-7.616-5.088c-0.672-0.416-1.504 0.032-1.504 0.832v10.176c0 0.8 0.896 1.248 1.504 0.832l7.616-5.088c0.576-0.416 0.576-1.248 0-1.664z"></path>
			<path d="M13.056 22.4c-0.224 0-0.416-0.064-0.608-0.16-0.448-0.224-0.704-0.672-0.704-1.152v-10.176c0-0.48 0.256-0.928 0.672-1.152s0.928-0.224 1.344 0.064l7.616 5.088c0.384 0.256 0.608 0.672 0.608 1.088s-0.224 0.864-0.608 1.088l-7.616 5.088c-0.192 0.16-0.448 0.224-0.704 0.224zM13.056 10.272c-0.096 0-0.224 0.032-0.32 0.064-0.224 0.128-0.352 0.32-0.352 0.576v10.176c0 0.256 0.128 0.48 0.352 0.576 0.224 0.128 0.448 0.096 0.64-0.032l7.616-5.088c0.192-0.128 0.288-0.32 0.288-0.544s-0.096-0.416-0.288-0.544l-7.584-5.088c-0.096-0.064-0.224-0.096-0.352-0.096z"></path>
			<path d="M16 0.32c-8.64 0-15.68 7.040-15.68 15.68s7.040 15.68 15.68 15.68 15.68-7.040 15.68-15.68-7.040-15.68-15.68-15.68zM16 29.216c-7.296 0-13.216-5.92-13.216-13.216s5.92-13.216 13.216-13.216 13.216 5.92 13.216 13.216-5.92 13.216-13.216 13.216z"></path>
			<path d="M16 32c-8.832 0-16-7.168-16-16s7.168-16 16-16 16 7.168 16 16-7.168 16-16 16zM16 0.672c-8.448 0-15.328 6.88-15.328 15.328s6.88 15.328 15.328 15.328c8.448 0 15.328-6.88 15.328-15.328s-6.88-15.328-15.328-15.328zM16 29.568c-7.488 0-13.568-6.080-13.568-13.568s6.080-13.568 13.568-13.568c7.488 0 13.568 6.080 13.568 13.568s-6.080 13.568-13.568 13.568zM16 3.104c-7.104 0-12.896 5.792-12.896 12.896s5.792 12.896 12.896 12.896c7.104 0 12.896-5.792 12.896-12.896s-5.792-12.896-12.896-12.896z"></path>
		</symbol>
		<symbol id="icon-share" viewBox="0 0 32 32">
			<title>icon-share</title>
			<path d="M25.44 19.136c-1.888 0-3.584 0.832-4.736 2.176l-8-4c0.096-0.416 0.128-0.864 0.128-1.312s-0.064-0.896-0.128-1.312l8-4c1.152 1.312 2.848 2.176 4.736 2.176 3.456 0 6.304-2.816 6.304-6.304s-2.816-6.304-6.304-6.304-6.304 2.816-6.304 6.304c0 0.448 0.064 0.896 0.128 1.312l-8 4c-1.152-1.312-2.848-2.176-4.736-2.176-3.456 0-6.272 2.848-6.272 6.304s2.816 6.304 6.304 6.304c1.888 0 3.584-0.832 4.736-2.176l8 4c-0.096 0.416-0.128 0.864-0.128 1.312 0 3.456 2.816 6.304 6.304 6.304s6.304-2.816 6.304-6.304-2.848-6.304-6.336-6.304zM25.44 3.424c1.728 0 3.136 1.408 3.136 3.136s-1.408 3.136-3.136 3.136c-1.728 0-3.136-1.408-3.136-3.136s1.408-3.136 3.136-3.136zM6.56 19.136c-1.728 0-3.136-1.408-3.136-3.136s1.408-3.136 3.136-3.136 3.136 1.408 3.136 3.136-1.408 3.136-3.136 3.136zM25.44 28.576c-1.728 0-3.136-1.408-3.136-3.136s1.408-3.136 3.136-3.136c1.728 0 3.136 1.408 3.136 3.136s-1.408 3.136-3.136 3.136z"></path>
			<path d="M25.44 32c-3.616 0-6.56-2.944-6.56-6.56 0-0.384 0.032-0.768 0.096-1.184l-7.616-3.808c-1.248 1.344-2.976 2.112-4.8 2.112-3.616 0-6.56-2.944-6.56-6.56s2.944-6.56 6.56-6.56c1.824 0 3.552 0.768 4.8 2.112l7.648-3.808c-0.064-0.384-0.096-0.768-0.096-1.184-0.032-3.616 2.912-6.56 6.528-6.56s6.56 2.944 6.56 6.56-2.944 6.56-6.56 6.56c-1.824 0-3.552-0.768-4.8-2.112l-7.648 3.808c0.064 0.384 0.096 0.768 0.096 1.184s-0.032 0.768-0.096 1.184l7.616 3.808c1.248-1.344 2.976-2.112 4.8-2.112 3.616 0 6.56 2.944 6.56 6.56s-2.912 6.56-6.528 6.56zM11.232 19.808l8.352 4.192-0.032 0.192c-0.096 0.416-0.128 0.832-0.128 1.248 0 3.328 2.72 6.048 6.048 6.048s6.048-2.72 6.048-6.048-2.72-6.048-6.048-6.048c-1.728 0-3.392 0.768-4.544 2.080l-0.128 0.16-8.384-4.16 0.032-0.192c0.096-0.416 0.128-0.832 0.128-1.248s-0.032-0.832-0.128-1.248l-0.032-0.192 8.352-4.192 0.128 0.16c1.152 1.312 2.816 2.080 4.544 2.080 3.328 0 6.048-2.72 6.048-6.048s-2.72-6.080-6.048-6.080-6.048 2.72-6.048 6.048c0 0.416 0.032 0.832 0.128 1.248l0.032 0.192-8.32 4.192-0.128-0.16c-1.152-1.312-2.816-2.080-4.544-2.080-3.328 0-6.048 2.72-6.048 6.048s2.72 6.048 6.048 6.048c1.728 0 3.392-0.768 4.544-2.080l0.128-0.16zM25.44 28.864c-1.888 0-3.424-1.536-3.424-3.424s1.536-3.424 3.424-3.424c1.888 0 3.424 1.536 3.424 3.424s-1.536 3.424-3.424 3.424zM25.44 22.56c-1.6 0-2.88 1.28-2.88 2.88s1.28 2.88 2.88 2.88 2.88-1.28 2.88-2.88-1.28-2.88-2.88-2.88zM6.56 19.424c-1.888 0-3.424-1.536-3.424-3.424s1.536-3.424 3.424-3.424 3.392 1.536 3.392 3.424-1.504 3.424-3.392 3.424zM6.56 13.12c-1.6 0-2.88 1.28-2.88 2.88s1.28 2.88 2.88 2.88 2.88-1.28 2.88-2.88-1.28-2.88-2.88-2.88zM25.44 9.952c-1.888 0-3.424-1.536-3.424-3.424s1.536-3.392 3.424-3.392c1.888 0 3.424 1.536 3.424 3.424s-1.536 3.392-3.424 3.392zM25.44 3.68c-1.6 0-2.88 1.28-2.88 2.88s1.28 2.88 2.88 2.88 2.88-1.28 2.88-2.88-1.28-2.88-2.88-2.88z"></path>
		</symbol>
		<symbol id="icon-shufle" viewBox="0 0 32 32">
			<title>icon-shufle</title>
			<path d="M23.168 9.824h2.528l-1.248 1.248c-0.704 0.704-0.704 1.888 0 2.592 0.352 0.352 0.832 0.544 1.312 0.544s0.928-0.192 1.312-0.544l4.384-4.384c0.096-0.096 0.16-0.192 0.224-0.288 0.032-0.032 0.032-0.096 0.064-0.128 0.032-0.064 0.064-0.128 0.096-0.192s0.032-0.096 0.064-0.16c0.032-0.064 0.032-0.128 0.064-0.192 0.032-0.096 0.032-0.192 0.032-0.288 0-0.032 0-0.064 0-0.064 0-0.032 0-0.064 0-0.096 0-0.096 0-0.192-0.032-0.288 0-0.064-0.032-0.128-0.064-0.192 0-0.064-0.032-0.096-0.032-0.16-0.032-0.064-0.064-0.128-0.096-0.224-0.032-0.032-0.032-0.064-0.064-0.096-0.064-0.096-0.16-0.192-0.224-0.288l-4.448-4.352c-0.704-0.704-1.888-0.704-2.592 0s-0.704 1.888 0 2.592l1.248 1.248h-2.528c-5.44 0-8.448 4.704-11.136 8.864-2.368 3.68-4.608 7.168-8.032 7.168h-2.144c-1.024 0.032-1.856 0.832-1.856 1.856s0.832 1.856 1.856 1.856h2.176c5.44 0 8.448-4.704 11.136-8.864 2.336-3.68 4.576-7.168 8-7.168z"></path>
			<path d="M1.856 9.824h2.176c1.824 0 3.424 0.928 5.12 3.008 0.352 0.448 0.896 0.672 1.408 0.672 0.416 0 0.832-0.128 1.184-0.416 0.8-0.64 0.896-1.824 0.256-2.592-1.536-1.856-4.064-4.352-7.968-4.352h-2.176c-1.024 0-1.856 0.832-1.856 1.856s0.832 1.824 1.856 1.824z"></path>
			<path d="M31.872 24.736c0.032-0.032 0.032-0.096 0.032-0.16 0.032-0.064 0.032-0.128 0.064-0.192 0.032-0.096 0.032-0.192 0.032-0.256 0-0.032 0-0.064 0-0.096s0-0.032 0-0.064c0-0.096 0-0.192-0.032-0.288 0-0.064-0.032-0.128-0.064-0.16-0.032-0.064-0.032-0.128-0.064-0.16-0.032-0.064-0.064-0.128-0.096-0.192-0.032-0.032-0.032-0.096-0.064-0.128-0.064-0.096-0.128-0.192-0.224-0.288v0l-4.416-4.448c-0.704-0.704-1.888-0.704-2.592 0s-0.704 1.888 0 2.592l1.248 1.248h-2.528c-1.824 0-3.424-0.928-5.152-3.040-0.64-0.8-1.792-0.896-2.592-0.256s-0.896 1.792-0.256 2.592c1.568 1.888 4.064 4.384 8 4.384h2.528l-1.248 1.248c-0.704 0.704-0.704 1.888 0 2.592 0.352 0.352 0.832 0.544 1.312 0.544s0.928-0.192 1.312-0.544l4.416-4.416c0.096-0.096 0.16-0.192 0.224-0.288 0.032-0.032 0.032-0.064 0.064-0.096 0 0 0.064-0.064 0.096-0.128z"></path>
		</symbol>
		<symbol id="icon-next" viewBox="0 0 32 32">
			<title>next</title>
			<path d="M2.304 18.304h14.688l-4.608 4.576c-0.864 0.864-0.864 2.336 0 3.232 0.864 0.864 2.336 0.864 3.232 0l8.448-8.48c0.864-0.864 0.864-2.336 0-3.232l-8.448-8.448c-0.448-0.448-1.056-0.672-1.632-0.672s-1.184 0.224-1.632 0.672c-0.864 0.864-0.864 2.336 0 3.232l4.64 4.576h-14.688c-1.248 0-2.304 0.992-2.304 2.272s1.024 2.272 2.304 2.272z"></path>
			<path d="M29.696 26.752c1.248 0 2.304-1.024 2.304-2.304v-16.928c0-1.248-1.024-2.304-2.304-2.304s-2.304 1.024-2.304 2.304v16.928c0.064 1.28 1.056 2.304 2.304 2.304z"></path>
		</symbol>
		<symbol id="icon-prev" viewBox="0 0 32 32">
			<title>prev</title>
			<path d="M29.696 13.696h-14.688l4.576-4.576c0.864-0.864 0.864-2.336 0-3.232-0.864-0.864-2.336-0.864-3.232 0l-8.448 8.48c-0.864 0.864-0.864 2.336 0 3.232l8.448 8.448c0.448 0.448 1.056 0.672 1.632 0.672s1.184-0.224 1.632-0.672c0.864-0.864 0.864-2.336 0-3.232l-4.608-4.576h14.688c1.248 0 2.304-1.024 2.304-2.304s-1.024-2.24-2.304-2.24z"></path>
			<path d="M2.304 5.248c-1.248 0-2.304 1.024-2.304 2.304v16.928c0 1.248 1.024 2.304 2.304 2.304s2.304-1.024 2.304-2.304v-16.928c-0.064-1.28-1.056-2.304-2.304-2.304z"></path>
		</symbol>
	</defs>
</svg>